<svg width="680" height="742" viewBox="0 0 680 742" role="img" xmlns="http://www.w3.org/2000/svg">
<title>Brand board Studio Mythos</title>
<defs>
<linearGradient id="g-deep" x1="0" y1="0" x2="120" y2="120" gradientUnits="userSpaceOnUse"><stop offset="0" stop-color="#312E81"/><stop offset="0.55" stop-color="#0B1020"/><stop offset="1" stop-color="#0A0E1A"/></linearGradient>
<linearGradient id="g-ring" x1="0" y1="0" x2="120" y2="120" gradientUnits="userSpaceOnUse"><stop offset="0" stop-color="#6366F1"/><stop offset="0.55" stop-color="#7C3AED"/><stop offset="1" stop-color="#22D3EE"/></linearGradient>
<linearGradient id="g-vibe" x1="0" y1="0" x2="120" y2="120" gradientUnits="userSpaceOnUse"><stop offset="0" stop-color="#4F46E5"/><stop offset="0.5" stop-color="#7C3AED"/><stop offset="1" stop-color="#6D28D9"/></linearGradient>
<linearGradient id="g-m" x1="30" y1="30" x2="90" y2="92" gradientUnits="userSpaceOnUse"><stop offset="0" stop-color="#FFFFFF"/><stop offset="1" stop-color="#C7D2FE"/></linearGradient>
<linearGradient id="g-text" x1="44" y1="400" x2="150" y2="490" gradientUnits="userSpaceOnUse"><stop offset="0" stop-color="#FFFFFF"/><stop offset="1" stop-color="#A5B4FC"/></linearGradient>
<radialGradient id="g-glow" cx="0.5" cy="0.5" r="0.5"><stop offset="0" stop-color="#22D3EE" stop-opacity="0.85"/><stop offset="1" stop-color="#22D3EE" stop-opacity="0"/></radialGradient>
</defs>
<rect x="6" y="6" width="668" height="730" rx="26" fill="#0A0E1A"/>
<rect x="6.75" y="6.75" width="666.5" height="728.5" rx="25.25" fill="none" stroke="url(#g-ring)" stroke-width="1.5" stroke-opacity="0.6"/>

<g transform="translate(44,40)">
<rect x="0" y="0" width="120" height="120" rx="30" fill="url(#g-deep)"/>
<rect x="0.75" y="0.75" width="118.5" height="118.5" rx="29.25" fill="none" stroke="url(#g-ring)" stroke-width="1.5"/>
<circle cx="60" cy="58" r="26" fill="url(#g-glow)" opacity="0.45"/>
<path d="M34 90 L34 36" stroke="url(#g-m)" stroke-width="12" stroke-linecap="round"/>
<path d="M86 90 L86 36" stroke="url(#g-m)" stroke-width="12" stroke-linecap="round"/>
<path d="M34 36 L60 66 L86 36" stroke="#67E8F9" stroke-width="12" stroke-linecap="round" stroke-linejoin="round" fill="none"/>
</g>

<text x="186" y="118" font-family="'Inter','Segoe UI',sans-serif" font-size="44" font-weight="800" letter-spacing="-1.5" fill="#F8FAFC">Studio<tspan fill="#A78BFA"> Mythos</tspan></text>
<text x="188" y="148" font-family="'Inter','Segoe UI',sans-serif" font-size="12" font-weight="600" letter-spacing="3.5" fill="#64748B">SOFTWARE HOUSE · AGÊNCIA DIGITAL</text>
<rect x="476" y="44" width="160" height="28" rx="14" fill="none" stroke="#22D3EE" stroke-opacity="0.45" stroke-width="1"/>
<text x="556" y="62" text-anchor="middle" font-family="'Inter','Segoe UI',sans-serif" font-size="11" font-weight="700" letter-spacing="3" fill="#22D3EE">VOLTAGE OBSIDIAN</text>

<line x1="44" y1="178" x2="636" y2="178" stroke="#1E293B" stroke-width="1"/>
<text x="44" y="206" font-family="'Inter','Segoe UI',sans-serif" font-size="12" font-weight="700" letter-spacing="3" fill="#475569">PALETA</text>
<g font-family="'Inter','Segoe UI',sans-serif">
<rect x="44" y="218" width="104" height="96" rx="12" fill="#0A0E1A" stroke="#334155" stroke-width="1"/>
<text x="44" y="334" font-size="13" font-weight="700" fill="#E2E8F0">Obsidiana</text><text x="44" y="350" font-size="11.5" fill="#64748B">#0A0E1A</text>
<rect x="166" y="218" width="104" height="96" rx="12" fill="#4F46E5"/>
<text x="166" y="334" font-size="13" font-weight="700" fill="#E2E8F0">Índigo</text><text x="166" y="350" font-size="11.5" fill="#64748B">#4F46E5</text>
<rect x="288" y="218" width="104" height="96" rx="12" fill="#7C3AED"/>
<text x="288" y="334" font-size="13" font-weight="700" fill="#E2E8F0">Violeta</text><text x="288" y="350" font-size="11.5" fill="#64748B">#7C3AED</text>
<rect x="410" y="218" width="104" height="96" rx="12" fill="#22D3EE"/>
<text x="410" y="334" font-size="13" font-weight="700" fill="#E2E8F0">Ciano</text><text x="410" y="350" font-size="11.5" fill="#64748B">#22D3EE</text>
<rect x="532" y="218" width="104" height="96" rx="12" fill="#94A3B8"/>
<text x="532" y="334" font-size="13" font-weight="700" fill="#E2E8F0">Slate</text><text x="532" y="350" font-size="11.5" fill="#64748B">#94A3B8</text>
</g>

<line x1="44" y1="376" x2="636" y2="376" stroke="#1E293B" stroke-width="1"/>
<text x="44" y="404" font-family="'Inter','Segoe UI',sans-serif" font-size="12" font-weight="700" letter-spacing="3" fill="#475569">TIPOGRAFIA</text>
<text x="44" y="492" font-family="'Inter','Segoe UI',sans-serif" font-size="92" font-weight="800" letter-spacing="-3" fill="url(#g-text)">Ag</text>
<text x="210" y="436" font-family="'Inter','Segoe UI',sans-serif" font-size="23" font-weight="800" letter-spacing="-0.5" fill="#F8FAFC">Tecnologia que cresce</text>
<text x="210" y="464" font-family="'Inter','Segoe UI',sans-serif" font-size="17" font-weight="600" fill="#C7D2FE">Da ideia ao lançamento</text>
<text x="210" y="489" font-family="'Inter','Segoe UI',sans-serif" font-size="14" font-weight="400" fill="#94A3B8">Produtos digitais sob medida.</text>
<text x="210" y="510" font-family="'Inter','Segoe UI',sans-serif" font-size="11" font-weight="700" letter-spacing="2" fill="#475569">INTER · SISTEMA SANS-SERIF</text>

<line x1="44" y1="534" x2="636" y2="534" stroke="#1E293B" stroke-width="1"/>
<text x="44" y="562" font-family="'Inter','Segoe UI',sans-serif" font-size="12" font-weight="700" letter-spacing="3" fill="#475569">APLICAÇÕES</text>

<rect x="44" y="576" width="185" height="120" rx="16" fill="#0A0E1A" stroke="#1E293B" stroke-width="1"/>
<g transform="translate(99.5,599) scale(0.62)">
<rect x="0" y="0" width="120" height="120" rx="30" fill="url(#g-vibe)"/>
<path d="M34 90 L34 36" stroke="#FFFFFF" stroke-width="12" stroke-linecap="round"/>
<path d="M86 90 L86 36" stroke="#FFFFFF" stroke-width="12" stroke-linecap="round"/>
<path d="M34 36 L60 66 L86 36" stroke="#67E8F9" stroke-width="12" stroke-linecap="round" stroke-linejoin="round" fill="none"/>
</g>
<text x="136" y="718" text-anchor="middle" font-family="'Inter','Segoe UI',sans-serif" font-size="12" font-weight="600" fill="#94A3B8">Logo principal</text>

<rect x="247" y="576" width="185" height="120" rx="16" fill="#F8FAFC"/>
<g transform="translate(302.5,599) scale(0.62)">
<rect x="0" y="0" width="120" height="120" rx="30" fill="url(#g-vibe)"/>
<path d="M34 90 L34 36" stroke="#FFFFFF" stroke-width="12" stroke-linecap="round"/>
<path d="M86 90 L86 36" stroke="#FFFFFF" stroke-width="12" stroke-linecap="round"/>
<path d="M34 36 L60 66 L86 36" stroke="#67E8F9" stroke-width="12" stroke-linecap="round" stroke-linejoin="round" fill="none"/>
</g>
<text x="339" y="718" text-anchor="middle" font-family="'Inter','Segoe UI',sans-serif" font-size="12" font-weight="600" fill="#94A3B8">Fundo claro</text>

<rect x="450" y="576" width="185" height="120" rx="16" fill="url(#g-vibe)"/>
<g transform="translate(505,599) scale(0.62)">
<path d="M34 90 L34 36" stroke="#FFFFFF" stroke-width="12" stroke-linecap="round"/>
<path d="M86 90 L86 36" stroke="#FFFFFF" stroke-width="12" stroke-linecap="round"/>
<path d="M34 36 L60 66 L86 36" stroke="#A5F3FC" stroke-width="12" stroke-linecap="round" stroke-linejoin="round" fill="none"/>
</g>
<text x="542" y="718" text-anchor="middle" font-family="'Inter','Segoe UI',sans-serif" font-size="12" font-weight="600" fill="#94A3B8">Ícone reverso</text>
</svg>
